<svg width="42" height="49" viewBox="0 0 42 49" fill="none" xmlns="http://www.w3.org/2000/svg">
<g clip-path="url(#clip0_182_943)">
<path d="M32.5756 0V7.77913C32.9732 7.99655 33.2429 8.41897 33.2429 8.90457C33.2429 9.61228 32.6697 10.1861 31.9624 10.1861C31.2556 10.1861 30.6823 9.61228 30.6823 8.90457C30.6823 8.41897 30.9519 7.99655 31.3496 7.77913V0H32.5756ZM1.31289 41.2585C2.0201 41.2585 2.59325 41.8322 2.59325 42.5402C2.59325 43.0257 2.32346 43.448 1.92588 43.6655V48.4948H0.700103V43.6655C0.302431 43.448 0.0327008 43.0257 0.0327008 42.5402C0.0327008 41.8322 0.605759 41.2585 1.31289 41.2585ZM1.92588 3.50848C2.32346 3.72581 2.59325 4.14834 2.59325 4.63403C2.59325 5.34189 2.0201 5.91553 1.31289 5.91553C0.605759 5.91553 0.0327008 5.34189 0.0327008 4.63403C0.0327008 4.14834 0.302431 3.72581 0.700103 3.50848V0H1.92588V3.50848ZM41.3326 20.7747C41.7303 20.9922 42 21.4147 42 21.9003C42 22.6081 41.4268 23.1818 40.7198 23.1818C40.0126 23.1818 39.4393 22.6081 39.4393 21.9003C39.4393 21.4147 39.7091 20.9922 40.1067 20.7747V0H41.3326V20.7747ZM34.6826 10.5733C35.3136 9.55616 35.7009 8.52942 35.7451 7.5102H35.7436V0H36.9697V7.5102L36.9671 7.53161C36.9016 9.3098 36.0873 10.9289 34.8482 12.4734V10.5733H34.6826ZM6.30434 33.7362C6.70192 33.9537 6.97171 34.376 6.97171 34.8615C6.97171 35.5695 6.39851 36.1433 5.69144 36.1433C4.98422 36.1433 4.4111 35.5695 4.4111 34.8615C4.4111 34.3759 4.68081 33.9536 5.07865 33.7362V26.5473C4.68081 26.3297 4.4111 25.9073 4.4111 25.4217C4.4111 24.7141 4.98422 24.1401 5.69144 24.1401C6.39851 24.1401 6.97171 24.7141 6.97171 25.4217C6.97171 25.9073 6.70192 26.3298 6.30434 26.5473V33.7362ZM1.893 34.5806C2.29073 34.7981 2.56046 35.2205 2.56046 35.706C2.56046 36.4139 1.98726 36.9877 1.28019 36.9877C0.573059 36.9877 0 36.4139 0 35.706C0 35.2205 0.269644 34.798 0.667142 34.5806V28.6053H0.668588C0.498202 24.8054 3.17588 22.1536 5.67322 19.6808C6.18449 19.1746 6.68747 18.6766 7.15167 18.181V19.9406C6.94849 20.1441 6.74246 20.3481 6.53509 20.5534C4.21765 22.848 1.7321 25.3092 1.89069 28.5766L1.893 28.6053V34.5806ZM9.45694 12.1381V7.51708V0H10.6831V7.51708V11.2607C10.246 11.5126 9.83634 11.807 9.45694 12.1381ZM14.4486 41.2585C15.1558 41.2585 15.7288 41.8322 15.7288 42.5402C15.7288 43.0257 15.4591 43.448 15.0614 43.6655V48.4948H13.8357V43.6655C13.4382 43.448 13.1683 43.0257 13.1683 42.5402C13.1683 41.8322 13.7414 41.2585 14.4486 41.2585ZM23.2057 40.2902C23.9126 40.2902 24.4858 40.8637 24.4858 41.5717C24.4858 42.0573 24.2161 42.4798 23.8185 42.6972V48.4948H22.5927V42.6972C22.195 42.4798 21.9251 42.0574 21.9251 41.5717C21.9251 40.8637 22.4984 40.2902 23.2057 40.2902ZM40.7198 39.7419C41.4268 39.7419 42 40.3157 42 41.0234C42 41.509 41.7303 41.9314 41.3326 42.1488V48.4948H40.1067V42.1488C39.7091 41.9313 39.4393 41.509 39.4393 41.0234C39.4393 40.3157 40.0126 39.7419 40.7198 39.7419ZM26.9711 10.5733V0H28.197V10.5733H26.9711ZM23.8185 5.79762C24.2161 6.01504 24.4858 6.43749 24.4858 6.92309C24.4858 7.6312 23.9126 8.20459 23.2057 8.20459C22.4984 8.20459 21.9251 7.6312 21.9251 6.92309C21.9251 6.4374 22.195 6.01495 22.5927 5.79762V0H23.8185V5.79762ZM15.0614 8.13388C15.4591 8.3513 15.7288 8.77363 15.7288 9.25932C15.7288 9.96729 15.1558 10.5409 14.4486 10.5409C13.7414 10.5409 13.1683 9.96729 13.1683 9.25932C13.1683 8.77363 13.4382 8.3513 13.8357 8.13388V0H15.0614V8.13388ZM1.92588 18.5518C2.32346 18.7693 2.59325 19.1917 2.59325 19.6772C2.59325 20.3851 2.0201 20.9589 1.31289 20.9589C0.605759 20.9589 0.0327008 20.3851 0.0327008 19.6772C0.0327008 19.1917 0.302431 18.7693 0.700103 18.5518V10.9344C0.302431 10.7171 0.0327008 10.2945 0.0327008 9.80877C0.0327008 9.10101 0.605759 8.52727 1.31289 8.52727C2.0201 8.52727 2.59325 9.10101 2.59325 9.80877C2.59325 10.2945 2.32346 10.7171 1.92588 10.9344V18.5518ZM6.30434 13.3405C6.70192 13.558 6.97171 13.9805 6.97171 14.4662C6.97171 15.1739 6.39851 15.7478 5.69144 15.7478C4.98422 15.7478 4.4111 15.1739 4.4111 14.4662C4.4111 13.9805 4.68081 13.5581 5.07865 13.3405V0H6.30434V13.3405ZM9.95705 36.7594C9.54252 37.4655 9.01084 37.9921 8.46993 38.5279C7.33012 39.6569 6.14222 40.8335 6.30197 44.458L6.30428 44.4843V48.4948H5.07859V44.4843H5.07975C4.90329 40.3397 6.28349 38.9722 7.60777 37.6604C8.12665 37.1464 8.63529 36.642 8.99982 35.9259L9.05302 35.9796C9.33522 36.2623 9.6371 36.5231 9.95705 36.7594ZM36.3567 13.5607C37.0636 13.5607 37.6369 14.1344 37.6369 14.8422C37.6369 15.3277 37.3673 15.7501 36.9697 15.9676V19.5133L36.9671 19.542C36.8095 22.7867 37.9852 23.8436 39.1133 24.858C40.2395 25.8703 41.3262 26.8475 41.4172 29.3212L41.4196 29.3429V31.2332V32.1039V33.9943L41.4172 34.0157C41.3262 36.4898 40.2395 37.4667 39.1133 38.4792C37.9852 39.4933 36.8095 40.5505 36.9671 43.7953L36.9697 43.8239V48.4948H35.7436V43.8239H35.745C35.5676 40.0208 36.9594 38.769 38.2948 37.5684C39.2224 36.7344 40.1175 35.9292 40.1951 33.9943H40.194V32.1039V31.2332V29.3429H40.1951C40.1175 27.4081 39.2224 26.6027 38.2948 25.7688C36.9594 24.568 35.5676 23.3164 35.745 19.5133H35.7436V15.9677C35.3459 15.7502 35.0762 15.3279 35.0762 14.8422C35.0762 14.1344 35.6495 13.5607 36.3567 13.5607ZM21.4802 10.5733C21.2537 10.3351 21.0105 10.1164 20.7648 9.89557C19.4293 8.69497 18.0378 7.44334 18.2151 3.64008H18.2142V0H19.4399V3.64008L19.4376 3.66879C19.2801 6.91348 20.4559 7.9707 21.584 8.98474C22.1204 9.46708 22.6477 9.94154 23.0628 10.5733H21.4802ZM19.4399 19.8392C19.8376 20.0566 20.1073 20.3682 20.1073 20.9648C20.1073 21.5614 19.5343 22.2463 18.8271 22.2463C18.1199 22.2463 17.5469 21.5614 17.5469 20.9648C17.5469 20.3682 17.8166 20.0566 18.2142 19.8392V18.681H19.4399V19.8392ZM18.8271 25.5015C19.5343 25.5015 20.1073 26.0754 20.1073 26.7833C20.1073 27.2688 19.8376 27.6913 19.4399 27.9087V29.8138H18.2142V27.9087C17.8166 27.6913 17.5469 27.2688 17.5469 26.7833C17.5469 26.0754 18.1199 25.5015 18.8271 25.5015ZM19.4399 37.9215V48.4948H18.2142V37.9215H19.4399ZM23.134 23.3986C23.8413 23.3986 24.4142 23.9724 24.4142 24.68C24.4142 25.1657 24.1446 25.5881 23.747 25.8056V29.8138H22.5212V25.8058C22.1234 25.5884 21.8537 25.1658 21.8537 24.68C21.8537 23.9724 22.4266 23.3986 23.134 23.3986ZM24.9309 37.9215C25.1572 38.1598 25.4006 38.3785 25.6461 38.5993C26.9817 39.7999 28.3733 41.0516 28.1959 44.8548H28.197V48.4948H26.9711V44.8548L26.9737 44.8261C27.1311 41.5813 25.9553 40.5241 24.8274 39.5101C24.291 39.0278 23.7636 38.5533 23.3485 37.9215H24.9309ZM9.45139 48.4948V44.8548H9.45226C9.27496 41.0516 10.6666 39.7999 12.002 38.5993C12.2526 38.374 12.5009 38.1508 12.7312 37.9069C12.8482 37.9166 12.9661 37.9215 13.085 37.9215H14.2998C13.8846 38.5533 13.3572 39.0278 12.8208 39.5101C11.6929 40.5241 10.5172 41.5813 10.6748 44.8261L10.6771 44.8548V48.4948H9.45139ZM31.3496 48.4948V41.3205H31.3508C31.2168 38.4431 31.9806 37.0263 32.9389 35.9871L32.9464 35.9797C33.0215 35.9044 33.0951 35.8276 33.167 35.7495C33.4066 35.5092 33.6546 35.2863 33.9006 35.0651C34.8282 34.2311 35.7233 33.4258 35.8014 31.4908H35.7999V28.7298H37.0259V31.4908L37.0233 31.5125C36.9322 33.9862 35.8455 34.9633 34.7196 35.9758C33.5915 36.9899 32.4157 38.0473 32.5733 41.2917L32.5757 41.3205V48.4948H31.3496Z" fill="#DCDDDE"/>
<path d="M24.0699 16.6881L25.9626 12.5654H13.0851C12.6213 12.5654 12.1847 12.7063 11.7805 12.9284C11.2936 13.1951 10.8533 13.5313 10.4609 13.9239C10.0735 14.312 9.74468 14.749 9.49053 15.2353C9.29126 15.6158 9.14221 16.0413 9.14221 16.4754V32.0186C9.14221 32.4527 9.29126 32.878 9.49053 33.2587C9.74468 33.745 10.0735 34.1823 10.4609 34.5706C10.8533 34.9633 11.2936 35.2989 11.7803 35.566C12.1847 35.7874 12.6213 35.9286 13.0851 35.9286H28.9141C29.3782 35.9286 29.8147 35.7874 30.219 35.566C30.706 35.2989 31.1464 34.9633 31.5386 34.5706C31.9263 34.1823 32.2542 33.745 32.509 33.2587C32.7079 32.8781 32.8578 32.4524 32.8578 32.0186V17.6396V16.4754V12.5654H28.9141H28.8267H28.7396V12.7532L24.7925 21.2576H28.7396V31.8058H13.2602V16.6881H24.0699Z" fill="#DCDDDE"/>
<path d="M-154.225 -49.2207V123.069H151.767V-49.2207H-154.225Z" stroke="#DCDDDE" stroke-width="5.33332"/>
</g>
<defs>
<clipPath id="clip0_182_943">
<rect width="42" height="48.4948" fill="white"/>
</clipPath>
</defs>
</svg>
