<svg width="224" height="58" viewBox="0 0 224 58" fill="none" xmlns="http://www.w3.org/2000/svg">
<path d="M14.6387 18.3614C14.7418 18.3614 14.8448 18.3614 14.951 18.3613C15.2912 18.3614 15.6315 18.3626 15.9717 18.3638C16.2078 18.3641 16.4438 18.3643 16.6799 18.3645C17.3009 18.3651 17.9219 18.3666 18.543 18.3683C19.1768 18.3698 19.8106 18.3705 20.4444 18.3713C21.6879 18.3729 22.9314 18.3756 24.1749 18.3788C23.7851 19.5492 23.196 20.6447 22.6448 21.7482C19.8677 21.7482 17.0907 21.7482 14.2295 21.7482C14.2295 25.5893 14.2295 29.4304 14.2295 33.3879C18.1679 33.3879 22.1062 33.3879 26.1639 33.3879C26.1639 30.7598 26.1639 28.1316 26.1639 25.4239C25.1541 25.4239 24.1443 25.4239 23.1038 25.4239C23.2474 24.7052 23.4775 24.1333 23.7911 23.4819C23.8442 23.37 23.8972 23.258 23.9518 23.1427C24.121 22.7859 24.2913 22.4298 24.4617 22.0736C24.6308 21.7185 24.7997 21.3632 24.9683 21.0079C25.0731 20.7873 25.1782 20.5669 25.2836 20.3466C25.3321 20.2449 25.3805 20.1432 25.4305 20.0384C25.4935 19.9067 25.4935 19.9067 25.5578 19.7723C25.7686 19.3117 25.9645 18.8444 26.1639 18.3788C27.2747 18.3788 28.3856 18.3788 29.53 18.3788C29.5473 20.4344 29.5614 22.4899 29.5697 24.5456C29.5737 25.5001 29.5791 26.4547 29.5878 27.4092C29.5961 28.3307 29.6006 29.2522 29.6026 30.1738C29.604 30.525 29.6068 30.8763 29.6109 31.2275C29.6165 31.7202 29.6172 32.2128 29.6169 32.7056C29.6196 32.8501 29.6224 32.9946 29.6252 33.1436C29.6162 34.3124 29.2251 35.0138 28.4602 35.8755C28.3651 35.958 28.2701 36.0405 28.1721 36.1255C28.0778 36.2104 27.9836 36.2953 27.8864 36.3828C27.0677 36.9074 26.1654 36.9557 25.2185 36.9525C25.0982 36.9533 24.9778 36.9541 24.8539 36.9549C24.459 36.957 24.0641 36.9569 23.6692 36.9565C23.3928 36.9571 23.1163 36.9578 22.8398 36.9585C22.2613 36.9596 21.6829 36.9596 21.1044 36.9588C20.3658 36.9579 19.6272 36.9605 18.8887 36.964C18.3179 36.9663 17.7472 36.9664 17.1764 36.966C16.9042 36.966 16.6321 36.9668 16.3599 36.9684C13.382 36.9832 13.382 36.9832 12.1257 36.183C11.1503 35.2067 10.8407 34.4276 10.8387 33.0461C10.838 32.9175 10.8372 32.789 10.8364 32.6566C10.8342 32.2309 10.8331 31.8052 10.8323 31.3795C10.8314 31.0837 10.8305 30.7878 10.8297 30.4919C10.828 29.8712 10.8272 29.2505 10.8266 28.6298C10.8258 27.8352 10.8221 27.0406 10.8177 26.2459C10.8149 25.6346 10.8141 25.0232 10.8139 24.4119C10.8134 24.119 10.8122 23.8261 10.8102 23.5331C10.8076 23.1229 10.8078 22.7128 10.8088 22.3026C10.8074 22.182 10.806 22.0614 10.8046 21.9372C10.8127 20.8617 11.1911 20.082 11.9344 19.2977C12.8403 18.646 13.5089 18.3593 14.6387 18.3614Z" fill="#47C5E1"/>
<path d="M83.541 16.2344C85.8952 16.2218 88.2494 16.2092 90.6749 16.1961C91.7887 16.1878 91.7887 16.1878 92.9249 16.1792C93.8337 16.1765 93.8337 16.1765 94.2596 16.176C94.5561 16.175 94.8527 16.1729 95.1492 16.1698C95.5992 16.1653 96.049 16.1646 96.499 16.1649C96.6305 16.1627 96.7619 16.1605 96.8973 16.1582C97.8686 16.1649 98.4257 16.4334 99.1267 17.1306C99.1998 17.2203 99.273 17.3099 99.3484 17.4022C99.4611 17.5379 99.4611 17.5379 99.5761 17.6762C100.131 18.411 99.9592 19.4623 99.9662 20.349C99.9687 20.5847 99.9729 20.8205 99.9787 21.0561C100.033 23.2656 100.033 23.2656 99.5265 23.9765C99.4015 24.1003 99.2764 24.2241 99.1476 24.3516C99.2716 24.4795 99.3956 24.6073 99.5234 24.7391C99.9748 25.284 100.013 25.7113 100.02 26.4228C100.021 26.5307 100.022 26.6387 100.023 26.75C100.024 26.9773 100.023 27.2046 100.021 27.4319C100.018 27.7767 100.024 28.1205 100.031 28.4652C100.037 29.5335 100.036 30.454 99.2963 31.2966C99.1469 31.4219 99.1469 31.4219 98.9946 31.5499C98.8414 31.6796 98.6882 31.8094 98.5303 31.9431C97.8601 32.4167 97.282 32.4194 96.4817 32.4026C96.2676 32.4027 96.2676 32.4027 96.0493 32.4028C95.5903 32.4023 95.1316 32.3965 94.6728 32.3904C94.3883 32.3893 94.1038 32.3885 93.8193 32.3881C92.7679 32.3841 91.7166 32.3734 90.6653 32.3635C88.3143 32.3477 85.9633 32.3319 83.541 32.3156C83.541 27.0088 83.541 21.702 83.541 16.2344ZM86.4481 19.1444C86.4481 22.5306 86.4481 25.9168 86.4481 29.4057C89.9321 29.4057 93.416 29.4057 97.0055 29.4057C97.0055 28.1927 97.0055 26.9797 97.0055 25.73C94.3799 25.73 91.7543 25.73 89.0492 25.73C89.0492 24.7697 89.0492 23.8094 89.0492 22.8201C91.6748 22.8201 94.3004 22.8201 97.0055 22.8201C97.0055 21.6071 97.0055 20.3941 97.0055 19.1444C93.5216 19.1444 90.0376 19.1444 86.4481 19.1444Z" fill="#DCDDDE"/>
<path d="M192.494 16.1327C192.673 16.1304 192.673 16.1304 192.854 16.1279C193.244 16.1238 193.634 16.1252 194.024 16.1272C194.297 16.1263 194.57 16.1251 194.843 16.1238C195.415 16.122 195.986 16.123 196.557 16.126C197.286 16.1295 198.016 16.1254 198.745 16.1191C199.309 16.1152 199.872 16.1156 200.436 16.1172C200.705 16.1175 200.973 16.1163 201.242 16.1137C203.77 16.093 203.77 16.093 204.787 16.9095C205.522 17.6555 205.813 18.3561 205.81 19.401C205.81 19.5439 205.81 19.6869 205.81 19.8342C205.809 19.9832 205.808 20.1322 205.807 20.2857C205.807 20.4235 205.807 20.5614 205.807 20.7035C205.806 21.2175 205.804 21.7315 205.802 22.2456C205.799 23.3954 205.796 24.5452 205.792 25.7298C202.157 25.7298 198.522 25.7298 194.776 25.7298C194.776 24.7695 194.776 23.8093 194.776 22.8199C197.402 22.8199 200.027 22.8199 202.732 22.8199C202.732 21.6069 202.732 20.3939 202.732 19.1442C199.299 19.1442 195.865 19.1442 192.328 19.1442C192.328 22.5304 192.328 25.9167 192.328 29.4055C196.771 29.4055 201.214 29.4055 205.792 29.4055C205.792 30.3658 205.792 31.3261 205.792 32.3154C203.941 32.3362 202.09 32.3531 200.238 32.3631C199.378 32.3678 198.518 32.3743 197.659 32.3848C196.828 32.3948 195.998 32.4002 195.168 32.4026C194.851 32.4043 194.535 32.4076 194.219 32.4126C191.227 32.4578 191.227 32.4578 190.256 31.642C189.478 30.7858 189.25 30.0811 189.236 28.9193C189.234 28.808 189.233 28.6966 189.231 28.5818C189.227 28.2131 189.223 27.8443 189.221 27.4755C189.22 27.3493 189.219 27.223 189.218 27.0929C189.213 26.424 189.209 25.7551 189.206 25.0862C189.203 24.5341 189.198 23.9822 189.19 23.4302C189.181 22.7623 189.176 22.0946 189.175 21.4266C189.173 21.173 189.171 20.9193 189.166 20.6657C189.126 18.2836 189.126 18.2836 189.884 17.2826C190.714 16.5063 191.32 16.1187 192.494 16.1327Z" fill="#DCDDDE"/>
<path d="M106.268 16.2023C106.446 16.2001 106.446 16.2001 106.628 16.1978C107.023 16.1932 107.418 16.1899 107.813 16.187C107.948 16.186 108.083 16.185 108.222 16.184C108.936 16.179 109.651 16.1752 110.366 16.1722C110.956 16.1695 111.547 16.1642 112.138 16.1565C112.851 16.1473 113.565 16.1426 114.279 16.1411C114.55 16.1398 114.822 16.1369 115.093 16.1324C117.661 16.0921 117.661 16.0921 118.527 16.9153C118.595 16.9938 118.663 17.0723 118.732 17.1532C118.855 17.289 118.978 17.4249 119.105 17.5648C119.459 18.0882 119.516 18.4895 119.515 19.1054C119.515 19.2546 119.515 19.4038 119.515 19.5575C119.514 19.7139 119.513 19.8703 119.512 20.0314C119.512 20.1755 119.512 20.3195 119.512 20.4679C119.511 21.0062 119.509 21.5445 119.507 22.0828C119.504 23.2863 119.501 24.4899 119.497 25.7298C115.912 25.7298 112.327 25.7298 108.634 25.7298C108.634 24.7696 108.634 23.8093 108.634 22.8199C111.259 22.8199 113.885 22.8199 116.59 22.8199C116.59 21.6069 116.59 20.3939 116.59 19.1442C113.106 19.1442 109.622 19.1442 106.033 19.1442C106.033 22.5304 106.033 25.9167 106.033 29.4055C110.476 29.4055 114.919 29.4055 119.497 29.4055C119.497 30.3658 119.497 31.3261 119.497 32.3155C117.638 32.3293 115.779 32.3405 113.919 32.3472C113.056 32.3504 112.192 32.3547 111.329 32.3617C110.496 32.3683 109.662 32.372 108.829 32.3736C108.511 32.3747 108.193 32.3769 107.875 32.3802C107.43 32.3847 106.985 32.3853 106.539 32.385C106.408 32.3872 106.277 32.3894 106.142 32.3917C105.17 32.385 104.613 32.1168 103.912 31.4193C103.838 31.3296 103.765 31.24 103.69 31.1477C103.615 31.0572 103.54 30.9668 103.462 30.8737C103.057 30.3377 103.101 29.8397 103.099 29.1936C103.098 29.077 103.097 28.9604 103.096 28.8403C103.093 28.4536 103.091 28.0669 103.089 27.6801C103.089 27.5481 103.088 27.416 103.087 27.28C103.084 26.5808 103.082 25.8817 103.081 25.1825C103.079 24.4608 103.074 23.7392 103.068 23.0175C103.064 22.4622 103.062 21.907 103.062 21.3517C103.061 21.0857 103.059 20.8198 103.056 20.5538C103.053 20.1809 103.053 19.8083 103.054 19.4354C103.052 19.326 103.05 19.2167 103.048 19.104C103.057 18.1932 103.392 17.6547 104.021 17.021C104.111 16.9477 104.2 16.8745 104.292 16.799C104.383 16.7238 104.473 16.6486 104.566 16.5711C105.106 16.1622 105.616 16.2075 106.268 16.2023Z" fill="#DCDDDE"/>
<path d="M153.16 16.2174C153.353 16.2174 153.546 16.2174 153.745 16.2174C153.956 16.2182 154.167 16.219 154.379 16.2198C154.595 16.2201 154.81 16.2203 155.026 16.2205C155.594 16.221 156.162 16.2225 156.73 16.2242C157.309 16.2258 157.889 16.2265 158.468 16.2273C159.605 16.2289 160.743 16.2315 161.88 16.2348C161.547 17.2332 161.096 18.1891 160.656 19.1447C158.182 19.1447 155.707 19.1447 153.158 19.1447C153.158 22.5309 153.158 25.9172 153.158 29.406C156.642 29.406 160.126 29.406 163.716 29.406C163.716 27.0811 163.716 24.7563 163.716 22.3609C162.807 22.3609 161.898 22.3609 160.962 22.3609C161.102 21.658 161.32 21.1011 161.626 20.4644C161.677 20.3578 161.727 20.2512 161.779 20.1414C161.939 19.8024 162.101 19.4639 162.262 19.1255C162.424 18.7859 162.585 18.4462 162.746 18.1064C162.846 17.8954 162.946 17.6845 163.046 17.4739C163.241 17.0641 163.419 16.6658 163.563 16.2348C164.573 16.2348 165.582 16.2348 166.623 16.2348C166.644 18.0281 166.66 19.8214 166.67 21.6148C166.675 22.4477 166.682 23.2805 166.692 24.1133C166.702 24.9176 166.708 25.7219 166.71 26.5263C166.712 26.8326 166.715 27.1388 166.72 27.445C166.765 30.3443 166.765 30.3443 165.943 31.3232C165.075 32.1518 164.503 32.3387 163.32 32.3431C163.202 32.3441 163.084 32.3451 162.962 32.3461C162.572 32.3491 162.181 32.3509 161.791 32.3524C161.59 32.3534 161.59 32.3534 161.386 32.3543C160.68 32.3575 159.973 32.3597 159.267 32.3611C158.538 32.3628 157.809 32.3681 157.08 32.3742C156.519 32.3782 155.958 32.3795 155.396 32.38C155.128 32.3808 154.859 32.3826 154.59 32.3854C154.214 32.3891 153.837 32.389 153.461 32.3879C153.351 32.3899 153.24 32.3918 153.126 32.3939C152.212 32.3845 151.674 32.0528 151.037 31.4198C150.964 31.3301 150.891 31.2405 150.816 31.1481C150.74 31.0577 150.665 30.9673 150.588 30.8741C150.183 30.3382 150.227 29.8401 150.224 29.1941C150.223 29.0775 150.222 28.9609 150.221 28.8408C150.218 28.4541 150.216 28.0674 150.215 27.6806C150.214 27.5486 150.214 27.4165 150.213 27.2805C150.21 26.5813 150.208 25.8821 150.206 25.183C150.204 24.4613 150.199 23.7396 150.193 23.018C150.189 22.4627 150.188 21.9075 150.187 21.3522C150.187 21.0862 150.185 20.8202 150.182 20.5543C150.178 20.1814 150.178 19.8088 150.179 19.4359C150.177 19.3265 150.175 19.2172 150.173 19.1045C150.183 18.1937 150.517 17.6552 151.147 17.0215C151.236 16.9482 151.326 16.875 151.418 16.7995C151.508 16.7243 151.599 16.6491 151.692 16.5716C152.189 16.1953 152.544 16.2161 153.16 16.2174Z" fill="#DCDDDE"/>
<path d="M122.557 16.2345C124.431 16.2137 126.305 16.1968 128.18 16.1868C129.05 16.182 129.92 16.1756 130.79 16.1651C131.631 16.1551 132.471 16.1496 133.311 16.1473C133.631 16.1456 133.951 16.1423 134.272 16.1373C134.721 16.1306 135.17 16.1297 135.62 16.1301C135.817 16.1252 135.817 16.1252 136.018 16.1201C137.021 16.1303 137.596 16.4684 138.317 17.1534C139.251 18.1468 139.19 19.2885 139.165 20.5799C139.158 20.9251 139.159 21.2699 139.16 21.6152C139.151 22.8642 139.13 23.7756 138.269 24.7537C137.473 25.4582 136.927 25.7579 135.869 25.8832C135.951 26.0508 136.034 26.2185 136.119 26.3912C136.426 27.0144 136.732 27.6382 137.037 28.2622C137.169 28.532 137.302 28.8016 137.435 29.071C137.626 29.4588 137.816 29.8471 138.006 30.2355C138.065 30.3555 138.124 30.4755 138.186 30.5991C138.241 30.7125 138.296 30.8259 138.353 30.9428C138.401 31.0417 138.45 31.1407 138.5 31.2427C138.623 31.5499 138.623 31.5499 138.776 32.3156C137.766 32.3156 136.756 32.3156 135.716 32.3156C133.919 28.746 133.919 28.746 133.153 27.1275C133.102 27.0204 133.051 26.9132 132.998 26.8027C132.656 26.0734 132.656 26.0734 132.656 25.73C130.333 25.73 128.01 25.73 125.617 25.73C125.617 27.9033 125.617 30.0765 125.617 32.3156C124.608 32.3156 123.598 32.3156 122.557 32.3156C122.557 29.1821 122.557 26.0486 122.557 22.8201C127.001 22.8201 131.444 22.8201 136.022 22.8201C136.022 21.6071 136.022 20.3941 136.022 19.1444C131.579 19.1444 127.135 19.1444 122.557 19.1444C122.557 18.1841 122.557 17.2238 122.557 16.2345Z" fill="#DCDDDE"/>
<path d="M173.063 16.1481C173.181 16.1463 173.3 16.1444 173.423 16.1426C173.813 16.1376 174.202 16.1371 174.592 16.1371C174.865 16.1355 175.138 16.1338 175.412 16.132C175.983 16.1291 176.554 16.1285 177.125 16.1295C177.855 16.1304 178.584 16.1237 179.313 16.1148C179.877 16.1092 180.441 16.1084 181.004 16.1091C181.273 16.1086 181.542 16.1065 181.811 16.1026C184.328 16.0696 184.328 16.0696 185.333 16.957C186.058 17.9228 186.298 18.7367 186.277 19.9364C186.277 20.071 186.277 20.2056 186.277 20.3443C186.277 20.7852 186.272 21.2259 186.267 21.6668C186.266 21.9741 186.265 22.2814 186.265 22.5887C186.262 23.3944 186.256 24.2001 186.25 25.0058C186.243 25.8291 186.241 26.6525 186.238 27.4759C186.231 29.0892 186.22 30.7025 186.208 32.3158C185.198 32.3158 184.188 32.3158 183.148 32.3158C183.148 27.9693 183.148 23.6228 183.148 19.1446C179.714 19.1446 176.281 19.1446 172.743 19.1446C172.743 23.4911 172.743 27.8376 172.743 32.3158C171.733 32.3158 170.724 32.3158 169.683 32.3158C169.673 30.5345 169.664 28.7532 169.659 26.9718C169.657 26.1447 169.654 25.3175 169.648 24.4904C169.643 23.692 169.641 22.8936 169.64 22.0952C169.639 21.7907 169.637 21.4863 169.635 21.1818C169.631 20.755 169.631 20.3284 169.631 19.9016C169.629 19.776 169.628 19.6504 169.626 19.521C169.632 18.4279 169.997 17.647 170.754 16.8472C171.534 16.3213 172.117 16.1436 173.063 16.1481Z" fill="#DCDDDE"/>
<path d="M48.2334 16.1648C48.3709 16.1647 48.5083 16.1646 48.6499 16.1646C49.1012 16.165 49.5523 16.1697 50.0035 16.1745C50.3175 16.1757 50.6316 16.1766 50.9457 16.1772C51.77 16.1795 52.5942 16.1855 53.4185 16.1923C54.2606 16.1986 55.1026 16.2014 55.9447 16.2045C57.5952 16.211 59.2457 16.2218 60.8961 16.2344C60.8961 17.1947 60.8961 18.1549 60.8961 19.1443C56.5539 19.1443 52.2116 19.1443 47.7377 19.1443C47.7377 22.5305 47.7377 25.9168 47.7377 29.4056C52.08 29.4056 56.4223 29.4056 60.8961 29.4056C60.8961 30.3659 60.8961 31.3262 60.8961 32.3156C59.0767 32.3294 57.2572 32.3406 55.4377 32.3473C54.5928 32.3505 53.7479 32.3548 52.903 32.3618C52.0875 32.3684 51.2721 32.3721 50.4566 32.3737C50.1456 32.3748 49.8346 32.377 49.5236 32.3803C49.0877 32.3848 48.652 32.3854 48.216 32.3851C48.0877 32.3873 47.9594 32.3895 47.8272 32.3918C46.8437 32.3849 46.2945 32.0873 45.583 31.3913C45.452 31.2376 45.452 31.2376 45.3183 31.0808C45.1843 30.9265 45.1843 30.9265 45.0475 30.7691C44.6123 30.1846 44.6566 29.6314 44.6529 28.9262C44.6522 28.8156 44.6514 28.705 44.6506 28.591C44.6484 28.225 44.6473 27.859 44.6465 27.493C44.6456 27.2383 44.6447 26.9837 44.6438 26.729C44.6422 26.1948 44.6413 25.6606 44.6408 25.1265C44.64 24.4431 44.6363 23.7597 44.6319 23.0763C44.6291 22.5501 44.6283 22.0239 44.6281 21.4977C44.6276 21.2458 44.6264 20.9939 44.6244 20.7421C44.6217 20.3891 44.622 20.0362 44.623 19.6831C44.6225 19.4825 44.6219 19.2819 44.6213 19.0752C44.7142 18.1771 45.1348 17.4956 45.7486 16.847C46.6015 16.2561 47.2091 16.1472 48.2334 16.1648Z" fill="#DCDDDE"/>
<path d="M63.9562 16.2344C64.9661 16.2344 65.9759 16.2344 67.0163 16.2344C67.0163 18.4076 67.0163 20.5809 67.0163 22.82C70.4498 22.82 73.8832 22.82 77.4207 22.82C77.4207 20.6467 77.4207 18.4735 77.4207 16.2344C78.4305 16.2344 79.4404 16.2344 80.4808 16.2344C80.4914 17.1935 80.5005 18.1525 80.506 19.1116C80.5083 19.4375 80.5115 19.7634 80.5154 20.0893C80.521 20.5592 80.5236 21.0291 80.5256 21.4991C80.528 21.6435 80.5304 21.7879 80.5328 21.9367C80.5331 23.001 80.4143 23.9041 79.6865 24.7338C79.5668 24.832 79.4471 24.9301 79.3237 25.0312C79.2036 25.1321 79.0835 25.2329 78.9597 25.3369C78.3888 25.7718 78.0193 25.7479 77.3048 25.7449C77.1191 25.7445 76.9335 25.7441 76.7423 25.7437C76.5054 25.7423 76.2686 25.7409 76.0245 25.7395C75.2735 25.7363 74.5224 25.7332 73.7486 25.7299C73.7486 27.9032 73.7486 30.0765 73.7486 32.3156C72.7387 32.3156 71.7289 32.3156 70.6885 32.3156C70.6885 30.1423 70.6885 27.9691 70.6885 25.7299C69.2397 25.7661 69.2397 25.7661 67.7913 25.8127C66.5224 25.8286 65.6549 25.7146 64.7213 24.811C64.172 24.1701 63.9366 23.5614 63.9389 22.7197C63.9389 22.5756 63.9389 22.4315 63.9389 22.2831C63.9397 22.128 63.9405 21.9729 63.9413 21.8131C63.9415 21.654 63.9417 21.4949 63.9419 21.3309C63.9428 20.8222 63.9447 20.3135 63.9467 19.8048C63.9474 19.4601 63.9481 19.1154 63.9488 18.7707C63.9504 17.9252 63.9531 17.0798 63.9562 16.2344Z" fill="#DCDDDE"/>
<path d="M32.7431 19.2978C33.0204 19.4701 33.0204 19.4701 33.2021 19.7573C33.2499 20.3029 33.2499 20.3029 33.2021 20.8294C33.1012 20.9305 33.0002 21.0315 32.8961 21.1357C32.8248 21.8252 32.8466 22.52 32.8483 23.2128C32.8458 23.4044 32.8434 23.596 32.8408 23.7935C32.8401 25.1531 32.8939 26.4289 33.8715 27.4629C33.9654 27.5634 34.0593 27.6639 34.156 27.7674C34.4371 28.0481 34.4371 28.0481 34.8278 28.3339C35.6767 29.0495 36.1004 30.0021 36.2622 31.0907C36.2997 31.751 36.3063 32.4092 36.3021 33.0705C36.3005 33.3772 36.3023 33.684 36.3041 33.9908C36.2985 36.7704 36.2985 36.7704 35.5737 37.6668C35.4936 37.7665 35.4136 37.8662 35.3311 37.9689C34.8732 38.4693 34.3755 38.9269 33.8703 39.379C32.7162 40.7859 32.7964 42.3989 32.7814 44.128C32.7771 44.3792 32.7725 44.6305 32.7676 44.8818C32.7564 45.492 32.7488 46.1022 32.7431 46.7124C32.3897 46.7124 32.0362 46.7124 31.6721 46.7124C31.6568 45.9117 31.6458 45.111 31.6385 44.3101C31.6354 44.0382 31.6312 43.7664 31.6259 43.4946C31.5875 41.4876 31.6335 39.958 33.0689 38.4224C33.4344 38.0564 33.8043 37.6954 34.1847 37.3449C34.8203 36.6048 34.9555 35.8747 34.9515 34.9256C34.9523 34.8108 34.9531 34.696 34.954 34.5778C34.9549 34.336 34.9548 34.0943 34.9534 33.8526C34.9521 33.4858 34.9565 33.1194 34.9614 32.7527C34.9683 31.3298 34.9502 30.2556 33.9056 29.1811C33.7776 29.0784 33.6496 28.9757 33.5177 28.87C32.4497 27.9552 31.7433 26.9463 31.6306 25.5062C31.6287 25.316 31.6268 25.1258 31.6249 24.9298C31.621 24.7193 31.6171 24.5087 31.6132 24.2981C31.6088 23.9697 31.6051 23.6414 31.6023 23.3131C31.5989 22.9936 31.5929 22.6743 31.5866 22.3549C31.5846 22.1651 31.5825 21.9752 31.5804 21.7796C31.5142 21.25 31.39 21.0772 31.0601 20.6762C31.0601 20.1306 31.0601 20.1306 31.2131 19.6041C31.7325 19.142 32.0911 19.0574 32.7431 19.2978Z" fill="#43C4DF"/>
<path d="M35.0383 8.57617C35.3917 8.57617 35.7452 8.57617 36.1093 8.57617C36.1102 8.77786 36.1111 8.97954 36.1121 9.18734C36.1208 11.0871 36.1319 12.9868 36.1454 14.8866C36.1523 15.8633 36.1583 16.84 36.1623 17.8167C36.1663 18.7591 36.1725 19.7015 36.1802 20.6439C36.1828 21.0036 36.1845 21.3633 36.1855 21.723C36.1869 22.2265 36.1912 22.7299 36.1962 23.2333C36.196 23.3824 36.1958 23.5314 36.1955 23.685C36.2063 24.4614 36.2595 24.926 36.7214 25.5763C36.6881 26.143 36.6671 26.3964 36.2623 26.8015C35.1974 26.8861 35.1974 26.8861 34.7323 26.6388C34.4957 26.1799 34.5425 25.7763 34.5793 25.27C34.655 25.1184 34.655 25.1184 34.7323 24.9637C34.8333 24.9637 34.9343 24.9637 35.0383 24.9637C35.0383 19.5558 35.0383 14.1479 35.0383 8.57617Z" fill="#35C2DB"/>
<path d="M31.6721 31.0898C32.0255 31.0898 32.379 31.0898 32.7431 31.0898C32.7566 31.6003 32.7647 32.1108 32.7718 32.6214C32.7757 32.7645 32.7795 32.9077 32.7835 33.0551C32.7974 34.3854 32.5757 35.3213 31.6338 36.2971C31.4525 36.4899 31.4525 36.4899 31.2675 36.6866C31.1485 36.8107 31.0296 36.9349 30.9071 37.0629C30.7046 37.2815 30.5036 37.5016 30.3046 37.7233C30.2212 37.8143 30.1377 37.9054 30.0518 37.9991C28.9231 39.5107 29.3585 42.1211 29.3674 43.9165C29.3682 44.1885 29.3689 44.4605 29.3695 44.7325C29.3712 45.3922 29.3738 46.0519 29.377 46.7116C28.9731 46.7116 28.5691 46.7116 28.153 46.7116C28.1452 45.7117 28.1398 44.7118 28.1361 43.7119C28.1346 43.3722 28.1325 43.0324 28.1299 42.6927C28.1261 42.2027 28.1244 41.7126 28.1231 41.2225C28.1215 41.0722 28.1199 40.9219 28.1183 40.767C28.118 39.0371 28.4128 37.7526 29.6322 36.4855C29.9244 36.1938 30.2212 35.9093 30.521 35.6252C31.2432 34.8765 31.5164 34.2067 31.5675 33.1837C31.5739 33.0613 31.5803 32.9389 31.5869 32.8128C31.5929 32.6865 31.5989 32.5601 31.6051 32.4299C31.6117 32.3012 31.6184 32.1725 31.6252 32.0399C31.6413 31.7232 31.6568 31.4065 31.6721 31.0898Z" fill="#54C8E6"/>
<path d="M9.48633 22.8203C9.63201 23.3724 9.63714 23.7991 9.48633 24.3519C9.07321 24.9187 8.53187 25.3723 8.01903 25.8463C6.89576 26.8874 5.81925 28.3353 5.50818 29.8654C5.49178 30.3074 5.4831 30.7456 5.48248 31.1876C5.48198 31.3151 5.48147 31.4427 5.48094 31.5742C5.48017 31.8432 5.47981 32.1123 5.47983 32.3813C5.4795 32.7941 5.47671 33.2067 5.47382 33.6195C5.47337 33.8809 5.47307 34.1424 5.47292 34.4038C5.47182 34.5276 5.47072 34.6514 5.46959 34.7789C5.44432 35.4573 5.44432 35.4573 5.8142 35.9916C5.88036 36.5877 5.9027 36.9308 5.56556 37.437C5.0894 37.7505 4.84354 37.7813 4.28414 37.6763C3.91119 37.3604 3.91119 37.3604 3.67212 36.9105C3.71037 36.3266 3.71037 36.3266 3.82512 35.8384C4.05234 35.7626 4.05234 35.7626 4.28414 35.6853C4.28094 35.5039 4.27773 35.3225 4.27443 35.1356C4.26326 34.4554 4.25629 33.7752 4.25052 33.095C4.24746 32.8019 4.2433 32.5089 4.23797 32.2158C4.17448 28.6357 5.37891 26.7354 7.80327 24.1987C7.9362 24.0593 8.06914 23.9199 8.2061 23.7763C9.13724 22.8203 9.13724 22.8203 9.48633 22.8203Z" fill="#45C4E0"/>
<path d="M178.863 36.2979C179.116 36.2979 179.368 36.2979 179.628 36.2979C179.679 37.8141 179.729 39.3303 179.781 40.8925C180.438 40.943 181.094 40.9936 181.77 41.0456C181.77 39.4789 181.77 37.9121 181.77 36.2979C182.023 36.2979 182.275 36.2979 182.536 36.2979C182.536 37.8646 182.536 39.4314 182.536 41.0456C183.242 41.0456 183.949 41.0456 184.678 41.0456C184.678 39.4789 184.678 37.9121 184.678 36.2979C184.93 36.2979 185.183 36.2979 185.443 36.2979C185.443 37.8646 185.443 39.4314 185.443 41.0456C185.695 41.0962 185.948 41.1467 186.208 41.1988C186.454 41.6911 186.369 42.1845 186.361 42.7303C186.058 42.7303 185.755 42.7303 185.443 42.7303C185.443 42.4271 185.443 42.1238 185.443 41.8114C185.249 41.8076 185.055 41.8037 184.855 41.7998C184.139 41.7854 183.422 41.77 182.705 41.7544C182.395 41.7477 182.084 41.7414 181.774 41.7352C181.328 41.7264 180.883 41.7167 180.437 41.7067C180.297 41.7041 180.158 41.7016 180.014 41.699C179.034 41.6757 179.034 41.6757 178.863 41.5051C178.85 41.119 178.846 40.7371 178.848 40.3511C178.849 40.2357 178.849 40.1203 178.849 40.0015C178.85 39.6316 178.852 39.2618 178.854 38.8919C178.855 38.6417 178.855 38.3916 178.856 38.1414C178.858 37.5269 178.86 36.9124 178.863 36.2979Z" fill="#DCDDDE"/>
<path d="M7.65027 8.57617C8.00372 8.57617 8.35716 8.57617 8.72131 8.57617C8.72221 8.70528 8.72311 8.8344 8.72403 8.96742C8.73289 10.1843 8.74392 11.4012 8.75738 12.6181C8.76422 13.2437 8.77022 13.8693 8.77432 14.4949C8.7783 15.0987 8.78448 15.7024 8.79218 16.3062C8.79473 16.5365 8.79649 16.7668 8.79745 16.9972C8.79892 17.3199 8.80321 17.6424 8.80816 17.9651C8.80986 18.1487 8.81156 18.3324 8.81331 18.5216C8.88011 19.0352 9.0139 19.2116 9.33333 19.6033C9.33333 20.1489 9.33333 20.1489 9.18033 20.6754C8.77306 21.0377 8.5588 21.1417 8.01366 21.1157C7.60347 20.9644 7.42595 20.8931 7.19126 20.5222C7.14344 19.9766 7.14344 19.9766 7.19126 19.4501C7.34273 19.2985 7.34273 19.2985 7.49727 19.1438C7.54822 18.6851 7.54822 18.6851 7.54605 18.139C7.54759 18.0358 7.54913 17.9327 7.55071 17.8265C7.55544 17.4851 7.55804 17.1437 7.56062 16.8022C7.56348 16.5657 7.56648 16.3292 7.5696 16.0928C7.57747 15.4699 7.58352 14.8469 7.58921 14.224C7.59532 13.5886 7.60315 12.9531 7.61083 12.3177C7.62565 11.0705 7.63856 9.82336 7.65027 8.57617Z" fill="#55C8E7"/>
<path d="M160.719 36.2939C161.268 36.4507 161.268 36.4507 161.56 36.8709C161.633 37.0542 161.705 37.2375 161.781 37.4264C161.821 37.5241 161.862 37.6217 161.904 37.7223C162.034 38.034 162.158 38.3475 162.281 38.6618C162.406 38.9753 162.532 39.2881 162.662 39.5997C162.779 39.8826 162.892 40.1673 163.004 40.4521C163.22 40.9202 163.22 40.9202 163.669 41.1075C163.785 41.1375 163.902 41.1675 164.022 41.1984C164.022 41.7038 164.022 42.2092 164.022 42.73C163.769 42.73 163.517 42.73 163.257 42.73C163.257 42.4267 163.257 42.1235 163.257 41.811C161.591 41.811 159.924 41.811 158.208 41.811C158.157 42.1143 158.107 42.4175 158.055 42.73C157.752 42.73 157.449 42.73 157.137 42.73C157.128 42.5067 157.122 42.2833 157.117 42.0599C157.112 41.8734 157.112 41.8734 157.107 41.683C157.137 41.3516 157.137 41.3516 157.443 41.0453C157.645 41.0453 157.847 41.0453 158.055 41.0453C158.08 40.9643 158.105 40.8834 158.13 40.8C158.431 39.8597 158.804 38.9666 159.212 38.0683C159.273 37.931 159.334 37.7937 159.397 37.6523C159.456 37.5213 159.515 37.3903 159.576 37.2553C159.629 37.1374 159.682 37.0194 159.737 36.8979C160.011 36.3733 160.113 36.2981 160.719 36.2939ZM160.503 37.2164C160.247 37.7967 159.992 38.3776 159.738 38.9586C159.665 39.124 159.592 39.2894 159.517 39.4599C159.447 39.6178 159.378 39.7758 159.307 39.9385C159.243 40.0845 159.179 40.2304 159.113 40.3808C158.954 40.7224 158.954 40.7224 158.973 41.0453C160.083 41.0453 161.194 41.0453 162.339 41.0453C162.091 40.4353 161.843 39.826 161.593 39.217C161.522 39.043 161.452 38.8689 161.379 38.6896C161.311 38.5243 161.243 38.3589 161.173 38.1886C161.08 37.9588 161.08 37.9588 160.984 37.7244C160.842 37.3479 160.842 37.3479 160.503 37.2164Z" fill="#DCDDDE"/>
<path d="M78.7978 36.2977C79.4909 37.1292 79.8861 38.2004 80.2992 39.1885C80.3925 39.4064 80.3925 39.4064 80.4877 39.6288C80.9399 40.6967 80.9399 40.6967 80.9399 41.0455C81.0629 41.0676 81.186 41.0897 81.3128 41.1125C81.7049 41.1986 81.7049 41.1986 81.8579 41.3518C81.8689 41.5844 81.8707 41.8176 81.8675 42.0505C81.8661 42.1771 81.8647 42.3036 81.8633 42.434C81.8615 42.5317 81.8597 42.6295 81.8579 42.7302C81.555 42.7302 81.252 42.7302 80.9399 42.7302C80.8641 42.2753 80.8641 42.2753 80.7869 41.8112C79.1206 41.8112 77.4544 41.8112 75.7377 41.8112C75.7377 42.1145 75.7377 42.4177 75.7377 42.7302C75.4852 42.7302 75.2328 42.7302 74.9727 42.7302C74.9727 42.2247 74.9727 41.7193 74.9727 41.1986C75.0886 41.1686 75.2045 41.1386 75.324 41.1077C75.8966 40.8095 75.988 40.4862 76.2367 39.8962C76.2791 39.7984 76.3214 39.7006 76.3651 39.5999C76.4995 39.2883 76.6304 38.9753 76.7609 38.662C76.8936 38.3484 77.0271 38.0352 77.1617 37.7225C77.2832 37.4393 77.4024 37.1552 77.5216 36.8711C77.8156 36.2688 78.1477 36.1615 78.7978 36.2977ZM78.3388 37.2166C78.1725 37.5673 78.0068 37.9183 77.8415 38.2695C77.7956 38.3663 77.7496 38.463 77.7022 38.5627C77.3178 39.3814 76.9931 40.2011 76.6557 41.0455C77.7665 41.0455 78.8774 41.0455 80.0218 41.0455C79.6841 40.002 79.6841 40.002 79.2837 38.9964C79.2134 38.8372 79.2134 38.8372 79.1418 38.6749C79.0945 38.5695 79.0473 38.4642 78.9986 38.3557C78.9496 38.245 78.9006 38.1344 78.8501 38.0204C78.7312 37.7522 78.6116 37.4844 78.4918 37.2166C78.4413 37.2166 78.3908 37.2166 78.3388 37.2166Z" fill="#DCDDDE"/>
<path d="M100.046 36.2497C100.184 36.2472 100.321 36.2448 100.463 36.2422C101.21 36.2417 101.768 36.2446 102.361 36.757C102.591 37.4504 102.632 38.1452 102.361 38.8246C102.31 38.9004 102.26 38.9762 102.208 39.0543C102.309 39.1554 102.41 39.2565 102.514 39.3606C102.56 39.7375 102.56 39.7375 102.561 40.1838C102.564 40.3303 102.567 40.4768 102.569 40.6277C102.503 41.1227 102.404 41.3044 102.055 41.6579C101.654 41.7299 101.654 41.7299 101.178 41.7232C101.008 41.7219 100.838 41.7206 100.662 41.7193C100.484 41.7148 100.306 41.7104 100.123 41.7058C99.8543 41.7036 99.8543 41.7036 99.5802 41.7013C98.2551 41.6836 98.2551 41.6836 98.0764 41.5048C98.0572 41.1445 98.0476 40.789 98.0454 40.4285C98.0445 40.3207 98.0436 40.2129 98.0427 40.1017C98.0413 39.8732 98.0403 39.6447 98.0397 39.4162C98.0382 39.0659 98.0334 38.7157 98.0286 38.3654C98.0276 38.1438 98.0268 37.9221 98.0262 37.7005C98.0243 37.5953 98.0225 37.4902 98.0205 37.3819C98.0219 37.0861 98.0219 37.0861 98.0764 36.6039C98.7264 36.1701 99.2823 36.247 100.046 36.2497ZM98.8415 37.2165C98.8305 37.4492 98.8286 37.6823 98.8319 37.9152C98.8333 38.0418 98.8347 38.1683 98.8361 38.2987C98.8379 38.3965 98.8396 38.4942 98.8415 38.5949C99.2718 38.599 99.7021 38.602 100.132 38.6044C100.317 38.6064 100.317 38.6064 100.505 38.6083C100.817 38.6096 101.13 38.6029 101.443 38.5949C101.656 38.4156 101.656 38.4156 101.624 37.9152C101.656 37.3619 101.656 37.3619 101.29 37.0633C100.897 37.037 100.524 37.0277 100.132 37.0346C99.9722 37.0348 99.9722 37.0348 99.8088 37.0349C99.2808 36.9937 99.2808 36.9937 98.8415 37.2165ZM98.8415 39.3606C98.8415 39.866 98.8415 40.3715 98.8415 40.8922C99.2931 41.1182 99.7064 41.0833 100.209 41.0932C100.4 41.0989 100.59 41.1046 100.787 41.1105C101.295 41.0942 101.295 41.0942 101.588 40.7665C101.813 40.2983 101.737 40.0039 101.596 39.5138C101.108 39.2696 100.581 39.3451 100.046 39.3511C99.8733 39.3521 99.8733 39.3521 99.6967 39.3532C99.4116 39.355 99.1266 39.3577 98.8415 39.3606Z" fill="#DCDDDE"/>
<path d="M139.471 36.2825C139.635 36.283 139.8 36.2835 139.969 36.284C140.14 36.2853 140.311 36.2866 140.488 36.2879C140.747 36.2889 140.747 36.2889 141.012 36.29C141.44 36.2918 141.868 36.2943 142.295 36.2975C142.295 36.5502 142.295 36.8029 142.295 37.0633C141.184 37.0633 140.074 37.0633 138.929 37.0633C138.929 37.5687 138.929 38.0741 138.929 38.5948C139.132 38.5895 139.335 38.5841 139.543 38.5786C139.81 38.5743 140.077 38.5702 140.344 38.5661C140.478 38.5622 140.611 38.5584 140.749 38.5544C141.737 38.5431 141.737 38.5431 142.226 38.7976C142.594 39.2231 142.628 39.642 142.639 40.1838C142.643 40.2987 142.647 40.4136 142.651 40.532C142.585 41.0109 142.436 41.2745 142.142 41.6579C141.744 41.7497 141.744 41.7497 141.271 41.7434C141.102 41.7423 140.932 41.7413 140.757 41.7401C140.58 41.7351 140.403 41.7301 140.22 41.7249C140.042 41.724 139.864 41.7231 139.681 41.7222C138.362 41.703 138.362 41.703 138.011 41.3516C137.974 40.8999 137.974 40.8999 137.976 40.3274C137.976 40.2265 137.976 40.1257 137.976 40.0218C137.976 39.8086 137.978 39.5954 137.98 39.3823C137.982 39.0555 137.983 38.7289 137.983 38.4022C137.988 36.8021 137.988 36.8021 138.164 36.4506C138.641 36.2914 138.971 36.2799 139.471 36.2825ZM138.929 39.3606C138.925 39.6126 138.922 39.8647 138.919 40.1168C138.918 40.2571 138.916 40.3975 138.914 40.5421C138.889 40.8869 138.889 40.8869 139.082 41.0453C139.432 41.0645 139.783 41.0722 140.134 41.074C140.422 41.0772 140.422 41.0772 140.716 41.0806C141.245 41.086 141.245 41.086 141.683 40.739C141.747 40.2029 141.747 40.2029 141.683 39.6669C141.382 39.2976 141.382 39.2976 140.812 39.3307C140.586 39.3327 140.36 39.3363 140.134 39.3414C139.961 39.3435 139.961 39.3435 139.784 39.3456C139.499 39.3492 139.214 39.3547 138.929 39.3606Z" fill="#DCDDDE"/>
<path d="M5.35518 15.3153C5.65163 15.4685 5.65163 15.4685 5.8142 15.7748C5.86856 16.204 5.84895 16.5617 5.8142 17C5.71321 17.1011 5.61223 17.2022 5.50818 17.3064C5.4776 17.7421 5.46538 18.1627 5.46754 18.5986C5.4671 18.7906 5.4671 18.7906 5.46666 18.9865C5.46645 19.2574 5.46701 19.5283 5.46829 19.7991C5.46993 20.2146 5.46831 20.63 5.46635 21.0455C5.46655 21.3083 5.46694 21.5711 5.46754 21.834C5.46692 21.9587 5.4663 22.0835 5.46567 22.212C5.44306 22.8945 5.44306 22.8945 5.8142 23.4325C5.89872 24.4985 5.89872 24.4985 5.65163 24.9641C5.16872 25.2135 4.81637 25.192 4.28414 25.1172C3.90163 24.7918 3.90163 24.7918 3.67212 24.3514C3.69448 23.7806 3.72446 23.5333 4.13114 23.1262C4.16361 22.694 4.17764 22.2772 4.17716 21.8447C4.17781 21.7174 4.17847 21.5902 4.17914 21.459C4.18002 21.1894 4.1801 20.9198 4.17944 20.6502C4.17895 20.2381 4.18254 19.8261 4.18642 19.414C4.18677 19.1522 4.18688 18.8903 4.18672 18.6285C4.18813 18.5053 4.18954 18.3821 4.19099 18.2552C4.18536 17.5734 4.12583 17.2043 3.67212 16.6937C3.69154 16.2174 3.75175 15.8972 3.99726 15.4876C4.45619 15.212 4.83402 15.2595 5.35518 15.3153Z" fill="#4CC6E3"/>
<path d="M8.87428 27.5681C9.17073 27.8169 9.17073 27.8169 9.33329 28.1807C9.28322 29.1497 9.28322 29.1497 8.87428 29.5591C8.84184 29.9582 8.82777 30.3406 8.82826 30.74C8.8276 30.8571 8.82694 30.9742 8.82627 31.0948C8.82539 31.3428 8.82531 31.5908 8.82598 31.8387C8.82646 32.2176 8.82288 32.5963 8.81899 32.9751C8.81864 33.216 8.81854 33.4569 8.81869 33.6978C8.81728 33.8109 8.81587 33.9241 8.81442 34.0406C8.82036 34.7026 8.90592 35.0328 9.33329 35.5321C9.33329 36.0777 9.33329 36.0777 9.18029 36.6041C8.77302 36.9665 8.55876 37.0705 8.01362 37.0445C7.60343 36.8932 7.42591 36.8219 7.19122 36.451C7.1434 35.9054 7.1434 35.9054 7.19122 35.3789C7.2922 35.2778 7.39318 35.1768 7.49723 35.0726C7.5278 34.6479 7.54004 34.2387 7.53787 33.8139C7.53816 33.6893 7.53846 33.5646 7.53876 33.4362C7.53897 33.1726 7.5384 32.9089 7.53712 32.6452C7.53549 32.2409 7.53711 31.8366 7.53907 31.4322C7.53886 31.1763 7.53847 30.9205 7.53787 30.6646C7.5388 30.4825 7.5388 30.4825 7.53975 30.2967C7.56012 29.6266 7.56012 29.6266 7.19122 29.0996C7.10459 28.1458 7.10459 28.1458 7.4016 27.7403C7.94134 27.3663 8.23917 27.3994 8.87428 27.5681Z" fill="#47C5E2"/>
<path d="M59.1331 36.6879C59.7861 37.3098 59.8482 38.2152 59.873 39.0732C59.8156 40.5559 59.8156 40.5559 59.3159 41.1222C58.5071 41.8398 57.777 41.8554 56.7388 41.8443C55.9788 41.7855 55.3309 41.6085 54.7856 41.045C54.4425 40.3986 54.4369 39.7966 54.4317 39.0827C54.4286 38.9756 54.4254 38.8685 54.4222 38.7582C54.4167 38.0236 54.5443 37.5338 54.929 36.9099C55.9487 35.955 57.976 35.9915 59.1331 36.6879ZM55.541 37.5225C55.3638 38.0545 55.3623 38.4839 55.3593 39.0445C55.3572 39.2322 55.355 39.42 55.3527 39.6134C55.386 40.0971 55.4102 40.3525 55.694 40.7387C56.3473 41.1817 57.0777 41.1238 57.8361 41.045C58.3445 40.8436 58.5317 40.7283 58.7703 40.238C59.0447 39.3996 59.0541 38.4783 58.7063 37.6661C58.3708 37.2804 58.1167 37.0783 57.603 37.017C56.4869 36.9886 56.4869 36.9886 55.541 37.5225Z" fill="#DCDDDE"/>
<path d="M121.266 36.2493C121.396 36.2488 121.527 36.2483 121.661 36.2478C122.353 36.2538 122.679 36.2812 123.322 36.6035C123.322 38.2713 123.322 39.9392 123.322 41.6576C123.07 41.6576 122.817 41.6576 122.557 41.6576C122.507 40.1919 122.456 38.7262 122.404 37.2161C121.546 37.2161 120.688 37.2161 119.803 37.2161C119.803 37.772 119.803 38.328 119.803 38.9008C120.864 38.9766 120.864 38.9766 121.945 39.0539C121.774 40.0856 121.774 40.0856 121.209 40.528C120.848 40.8162 120.556 41.0596 120.262 41.4183C119.775 41.7991 119.337 41.6979 118.732 41.6576C119.25 41.0241 119.752 40.4609 120.415 39.9729C120.33 39.9433 120.246 39.9136 120.158 39.8831C120.047 39.8432 119.937 39.8034 119.822 39.7623C119.712 39.7232 119.602 39.6841 119.489 39.6438C119.191 39.5134 119.191 39.5134 118.885 39.2071C118.634 38.5275 118.664 37.7957 118.837 37.1012C119.387 36.1581 120.297 36.2308 121.266 36.2493Z" fill="#DCDDDE"/>
<path d="M10.7104 36.7568C11.0164 36.91 11.3224 37.0631 11.6284 37.2163C11.5445 37.8329 11.2336 38.1406 10.8156 38.5851C9.40942 40.0903 8.8904 41.2714 8.82589 43.3467C8.81948 43.5436 8.81307 43.7405 8.80647 43.9434C8.80038 44.1483 8.7943 44.3532 8.78824 44.5581C8.78162 44.7672 8.77495 44.9763 8.76822 45.1854C8.75205 45.6942 8.73643 46.203 8.7213 46.7119C8.36786 46.7119 8.01442 46.7119 7.65026 46.7119C7.64263 46.0173 7.63711 45.3228 7.63345 44.6282C7.63192 44.3925 7.62984 44.1568 7.62718 43.9211C7.60358 41.781 7.70563 40.0215 9.22454 38.3662C9.45894 38.1331 9.69637 37.903 9.93757 37.677C10.2326 37.3878 10.4726 37.0938 10.7104 36.7568Z" fill="#40C3DE"/>
<path d="M11.0164 8.57617C11.4203 8.57617 11.8242 8.57617 12.2404 8.57617C12.2617 9.74371 12.278 10.9112 12.288 12.0789C12.2928 12.6212 12.2992 13.1633 12.3097 13.7054C12.3216 14.3289 12.326 14.9522 12.3301 15.5758C12.3372 15.8675 12.3372 15.8675 12.3444 16.1652C12.3449 17.4753 12.3449 17.4753 12.0407 17.8741C11.7097 18.1054 11.4222 18.2249 11.0164 18.2249C11.0164 15.0408 11.0164 11.8567 11.0164 8.57617Z" fill="#54C8E6"/>
<path d="M65.4863 36.2971C66.0059 36.2837 66.5254 36.2756 67.0451 36.2684C67.1919 36.2645 67.3388 36.2607 67.49 36.2567C68.8638 36.2424 68.8638 36.2424 69.4645 36.7566C69.6424 37.1128 69.6429 37.3366 69.6462 37.7329C69.6483 37.851 69.6505 37.969 69.6527 38.0907C69.6141 38.4747 69.503 38.7219 69.3115 39.0539C69.3872 39.1328 69.4629 39.2118 69.541 39.2932C69.8543 39.8028 69.8222 40.1487 69.7705 40.7386C69.6366 41.1789 69.6366 41.1789 69.4645 41.5043C69.0652 41.7042 68.7718 41.6748 68.3253 41.6725C68.0783 41.6717 68.0783 41.6717 67.8262 41.671C67.6537 41.6697 67.4811 41.6684 67.3033 41.6671C67.1295 41.6664 66.9557 41.6657 66.7767 41.665C66.3466 41.6632 65.9165 41.6606 65.4863 41.6575C65.4863 41.4553 65.4863 41.2532 65.4863 41.0449C67.0768 40.9691 67.0768 40.9691 68.6994 40.8917C68.6994 40.4369 68.6994 39.982 68.6994 39.5133C67.6896 39.4628 66.6798 39.4123 65.6393 39.3602C65.6393 39.1075 65.6393 38.8548 65.6393 38.5944C66.5987 38.5439 67.558 38.4933 68.5464 38.4413C68.5464 38.0875 68.5464 37.7337 68.5464 37.3692C68.3094 37.1319 68.0721 37.1829 67.7426 37.1676C67.6119 37.1611 67.4812 37.1547 67.3466 37.1481C67.2092 37.1421 67.0719 37.1361 66.9303 37.1299C66.7924 37.1233 66.6544 37.1166 66.5122 37.1098C66.1703 37.0935 65.8283 37.0779 65.4863 37.0629C65.4863 36.8102 65.4863 36.5575 65.4863 36.2971Z" fill="#DCDDDE"/>
<path d="M14.7136 38.2346C14.8063 38.2524 14.899 38.2701 14.9945 38.2884C14.6854 39.0692 14.0265 39.5478 13.4226 40.1041C12.2622 41.3465 12.2944 42.8196 12.2787 44.4242C12.2744 44.6466 12.2698 44.8691 12.2649 45.0915C12.2537 45.6316 12.2461 46.1717 12.2404 46.7119C11.8365 46.7119 11.4326 46.7119 11.0164 46.7119C11.0074 46.0546 11.002 45.3974 10.9973 44.7401C10.9947 44.5557 10.9921 44.3713 10.9895 44.1813C10.9782 42.1065 11.2362 40.548 12.6421 38.9776C13.326 38.3114 13.7694 38.1328 14.7136 38.2346Z" fill="#44C4E0"/>
<path d="M89.8046 36.2305C89.9592 36.2526 90.1139 36.2747 90.2732 36.2975C90.6625 36.8446 90.9147 37.45 91.1787 38.0653C91.2388 38.2054 91.2388 38.2054 91.3002 38.3483C91.3842 38.5442 91.4678 38.7402 91.5513 38.9364C91.6794 39.2372 91.8086 39.5374 91.938 39.8377C92.0197 40.0286 92.1012 40.2195 92.1828 40.4105C92.2568 40.5837 92.3308 40.7569 92.407 40.9353C92.5683 41.3516 92.5683 41.3516 92.5683 41.6579C92.2653 41.6579 91.9624 41.6579 91.6502 41.6579C91.1912 40.7964 91.1912 40.7964 91.1912 40.2795C90.2824 40.2795 89.3735 40.2795 88.4371 40.2795C88.2099 40.9618 88.2099 40.9618 87.9781 41.6579C87.6751 41.6579 87.3722 41.6579 87.0601 41.6579C87.4157 40.5383 87.8415 39.4584 88.2937 38.3746C88.362 38.2081 88.4303 38.0416 88.5008 37.87C88.5997 37.632 88.5997 37.632 88.7007 37.3893C88.7603 37.2457 88.8198 37.1021 88.8812 36.9541C89.123 36.4497 89.2435 36.3141 89.8046 36.2305ZM89.6612 37.2164C89.5326 37.5127 89.4054 37.8095 89.2786 38.1066C89.2076 38.2719 89.1366 38.4371 89.0635 38.6074C88.8693 39.0464 88.8693 39.0464 88.8961 39.5137C89.502 39.5137 90.1079 39.5137 90.7322 39.5137C90.4136 38.3029 90.4136 38.3029 89.8142 37.2164C89.7637 37.2164 89.7132 37.2164 89.6612 37.2164Z" fill="#DCDDDE"/>
<path d="M193.157 36.2672C193.314 36.2681 193.471 36.2691 193.633 36.2701C193.795 36.2727 193.958 36.2753 194.126 36.2779C194.373 36.28 194.373 36.28 194.626 36.2821C195.033 36.2857 195.44 36.2907 195.847 36.2971C195.847 36.5498 195.847 36.8025 195.847 37.0628C194.787 37.0628 193.726 37.0628 192.634 37.0628C192.583 37.5682 192.533 38.0737 192.481 38.5944C193.541 38.5944 194.602 38.5944 195.694 38.5944C195.694 38.8471 195.694 39.0998 195.694 39.3601C194.634 39.3601 193.573 39.3601 192.481 39.3601C192.479 40.2006 192.479 40.2006 192.787 40.8917C193.014 40.9157 193.243 40.9301 193.471 40.9401C193.609 40.9466 193.746 40.953 193.888 40.9596C194.105 40.9686 194.105 40.9686 194.327 40.9778C194.544 40.9878 194.544 40.9878 194.767 40.9979C195.127 41.0142 195.487 41.0298 195.847 41.0448C195.847 41.247 195.847 41.4492 195.847 41.6575C194.534 41.6575 193.221 41.6575 191.869 41.6575C191.641 41.202 191.699 40.7901 191.701 40.2827C191.701 40.1252 191.701 40.1252 191.702 39.9646C191.702 39.6291 191.704 39.2936 191.706 38.9581C191.707 38.7308 191.708 38.5034 191.708 38.2761C191.71 37.7185 191.713 37.1609 191.716 36.6034C192.214 36.3067 192.581 36.2607 193.157 36.2672Z" fill="#DCDDDE"/>
<path d="M28.153 8.57617C28.5569 8.57617 28.9609 8.57617 29.377 8.57617C29.3801 8.76479 29.3831 8.9534 29.3862 9.14773C29.3978 9.84591 29.4114 10.544 29.4256 11.2422C29.4315 11.5446 29.4368 11.8471 29.4416 12.1496C29.4486 12.5837 29.4574 13.0178 29.4667 13.452C29.4685 13.5877 29.4702 13.7235 29.472 13.8634C29.4751 13.9891 29.4781 14.1148 29.4813 14.2443C29.4833 14.3552 29.4853 14.466 29.4874 14.5803C29.5083 14.894 29.5083 14.894 29.8361 15.1618C29.9078 15.7123 29.9039 15.9814 29.5874 16.4445C29.1151 16.7679 28.8678 16.7871 28.306 16.6933C27.9426 16.4445 27.9426 16.4445 27.694 16.0807C27.617 15.4516 27.6439 15.237 28 14.7023C28.0497 14.4091 28.0497 14.4091 28.0488 14.0878C28.0518 13.9652 28.0549 13.8426 28.058 13.7163C28.0598 13.5846 28.0615 13.453 28.0633 13.3174C28.0663 13.182 28.0693 13.0467 28.0723 12.9073C28.0815 12.4751 28.0886 12.0428 28.0956 11.6105C28.1015 11.3175 28.1074 11.0244 28.1135 10.7314C28.1282 10.013 28.1411 9.29461 28.153 8.57617Z" fill="#39C2DC"/>
<path d="M111.082 36.2979C111.785 37.1566 112.15 38.2215 112.574 39.2365C112.651 39.4184 112.729 39.6004 112.809 39.7878C113.377 41.1396 113.377 41.1396 113.377 41.6583C113.074 41.6583 112.771 41.6583 112.459 41.6583C112.308 41.2034 112.156 40.7485 112 40.2799C110.713 40.3557 110.713 40.3557 109.399 40.433C109.197 40.8374 108.995 41.2417 108.787 41.6583C108.484 41.6583 108.181 41.6583 107.869 41.6583C108.331 40.4065 108.832 39.1732 109.351 37.9443C109.441 37.728 109.441 37.728 109.533 37.5074C109.59 37.3728 109.648 37.2382 109.707 37.0995C109.758 36.9783 109.809 36.857 109.862 36.732C110.134 36.2182 110.545 36.2083 111.082 36.2979ZM110.623 37.2168C110.469 37.5419 110.316 37.8674 110.164 38.1931C110.079 38.3744 109.994 38.5556 109.906 38.7423C109.685 39.1702 109.685 39.1702 109.705 39.5141C110.361 39.5141 111.018 39.5141 111.694 39.5141C111.391 38.756 111.088 37.9979 110.776 37.2168C110.726 37.2168 110.675 37.2168 110.623 37.2168Z" fill="#DCDDDE"/>
<path d="M202.935 36.2681C203.171 36.2696 203.171 36.2696 203.411 36.2711C203.575 36.2736 203.739 36.2762 203.908 36.2789C204.074 36.2802 204.24 36.2816 204.411 36.283C204.82 36.2867 205.23 36.2917 205.639 36.298C205.639 36.5507 205.639 36.8034 205.639 37.0638C204.629 37.1143 203.62 37.1649 202.579 37.2169C202.529 37.6718 202.478 38.1267 202.426 38.5953C203.487 38.5953 204.547 38.5953 205.639 38.5953C205.639 38.848 205.639 39.1007 205.639 39.3611C204.579 39.3611 203.519 39.3611 202.426 39.3611C202.426 39.8665 202.426 40.3719 202.426 40.8926C203.537 40.9432 204.648 40.9937 205.792 41.0458C205.792 41.2479 205.792 41.4501 205.792 41.6584C205.132 41.6628 204.473 41.6656 203.813 41.668C203.624 41.6693 203.436 41.6705 203.242 41.6719C203.063 41.6724 202.884 41.6728 202.699 41.6734C202.451 41.6746 202.451 41.6746 202.197 41.6758C201.814 41.6584 201.814 41.6584 201.661 41.5052C201.642 41.145 201.632 40.7895 201.63 40.429C201.629 40.3211 201.628 40.2133 201.627 40.1022C201.626 39.8737 201.625 39.6451 201.624 39.4166C201.623 39.0663 201.618 38.7162 201.613 38.3659C201.612 38.1442 201.612 37.9226 201.611 37.7009C201.609 37.5958 201.607 37.4906 201.605 37.3823C201.607 37.0865 201.607 37.0865 201.661 36.6043C202.174 36.2621 202.337 36.2615 202.935 36.2681Z" fill="#DCDDDE"/>
<path d="M17.9016 8.57617C18.255 8.57617 18.6085 8.57617 18.9726 8.57617C18.9757 8.68958 18.9787 8.80299 18.9818 8.91983C18.9965 9.44028 19.0133 9.96064 19.03 10.481C19.0347 10.6594 19.0395 10.8378 19.0444 11.0216C19.1136 13.0724 19.382 14.2744 20.9139 15.7266C21.7062 16.4786 21.7062 16.4786 21.8797 16.9997C21.3368 17.1164 20.8921 17.128 20.3497 16.9997C19.0175 16.0429 18.1727 14.7958 17.9016 13.1708C17.8893 12.811 17.8851 12.4509 17.8867 12.0909C17.8869 11.99 17.8871 11.8891 17.8873 11.7852C17.8882 11.4653 17.8901 11.1455 17.892 10.8256C17.8928 10.6078 17.8935 10.3899 17.8941 10.172C17.8958 9.64007 17.8984 9.10812 17.9016 8.57617Z" fill="#48C5E1"/>
<path d="M21.8798 38.2881C22.5831 38.1823 23.1667 38.1416 23.7911 38.5178C24.8774 39.455 25.5141 40.4197 25.8579 41.8106C25.8817 42.2023 25.8909 42.595 25.8878 42.9874C25.8874 43.0947 25.8869 43.2019 25.8865 43.3124C25.8848 43.651 25.8809 43.9895 25.877 44.3281C25.8755 44.5593 25.8741 44.7905 25.8728 45.0218C25.8695 45.5851 25.8642 46.1483 25.8579 46.7116C25.5045 46.7116 25.151 46.7116 24.7869 46.7116C24.7846 46.5842 24.7824 46.4569 24.7801 46.3257C24.7707 45.847 24.7593 45.3683 24.7467 44.8897C24.7392 44.5832 24.7339 44.2766 24.7286 43.97C24.6886 42.524 24.6283 41.2482 23.5819 40.1642C23.4747 40.0509 23.3674 39.9376 23.2568 39.8208C23.1558 39.7193 23.0548 39.6179 22.9508 39.5133C22.8719 39.4339 22.793 39.3546 22.7117 39.2728C22.6455 39.2069 22.5792 39.1409 22.5109 39.073C22.1858 38.7475 22.1858 38.7475 21.8798 38.2881Z" fill="#54C8E6"/>
<path d="M14.5355 8.57617C14.8889 8.57617 15.2424 8.57617 15.6065 8.57617C15.6096 8.76943 15.6126 8.96268 15.6157 9.16179C15.6273 9.87709 15.6409 10.5923 15.6551 11.3076C15.661 11.6175 15.6663 11.9274 15.6711 12.2373C15.678 12.6821 15.6869 13.1269 15.6962 13.5716C15.6979 13.7108 15.6997 13.8499 15.7015 13.9932C15.7046 14.122 15.7076 14.2507 15.7107 14.3834C15.7128 14.497 15.7148 14.6106 15.7169 14.7276C15.7369 15.0465 15.7369 15.0465 16.0655 15.315C16.1699 16.4116 16.1699 16.4116 15.8169 16.8465C15.3407 17.0472 15.0472 17.085 14.5355 16.9997C14.1625 16.6742 14.1625 16.6742 13.9235 16.2339C13.9458 15.6631 13.9758 15.4157 14.3825 15.0086C14.4328 14.7182 14.4328 14.7182 14.4313 14.3834C14.4343 14.2546 14.4373 14.1259 14.4405 13.9932C14.4422 13.8541 14.444 13.715 14.4458 13.5716C14.4488 13.4293 14.4518 13.2869 14.4548 13.1403C14.464 12.6846 14.4711 12.229 14.4781 11.7733C14.4839 11.4648 14.4899 11.1563 14.496 10.8478C14.5107 10.0906 14.5236 9.3334 14.5355 8.57617Z" fill="#4EC6E4"/>
<path d="M31.6721 8.57617C32.0256 8.57617 32.379 8.57617 32.7432 8.57617C32.7584 9.50502 32.7695 10.4338 32.7768 11.3627C32.7799 11.6781 32.784 11.9934 32.7893 12.3087C32.845 15.6895 32.845 15.6895 32.1312 16.9997C32.0487 17.1517 31.9663 17.3037 31.8813 17.4603C31.806 17.5673 31.7306 17.6743 31.653 17.7846C31.5769 17.8955 31.5007 18.0065 31.4223 18.1208C31.2131 18.378 31.2131 18.378 30.9071 18.5312C30.7254 17.4735 30.6997 16.7294 31.2119 15.7702C31.4724 15.26 31.5383 14.7778 31.5505 14.2095C31.5536 14.0839 31.5567 13.9582 31.5598 13.8287C31.5636 13.6274 31.5636 13.6274 31.5675 13.4221C31.5707 13.2836 31.5739 13.145 31.5772 13.0023C31.5872 12.5608 31.5962 12.1192 31.6052 11.6775C31.6118 11.3778 31.6185 11.0781 31.6252 10.7784C31.6416 10.0443 31.6571 9.31025 31.6721 8.57617Z" fill="#35C2DB"/>
<path d="M33.2022 38.2881C33.7175 38.5208 33.9073 38.6742 34.1203 39.207C33.936 39.4064 33.7517 39.6059 33.5674 39.8053C32.9754 40.7 32.8271 41.5979 32.8179 42.6434C32.8152 42.7607 32.8124 42.8779 32.8096 42.9987C32.8014 43.3684 32.7962 43.7382 32.791 44.1079C32.786 44.3606 32.7807 44.6133 32.7752 44.8659C32.7623 45.4811 32.752 46.0963 32.7432 46.7116C32.3898 46.7116 32.0363 46.7116 31.6722 46.7116C31.6569 45.9108 31.6459 45.1101 31.6386 44.3092C31.6355 44.0374 31.6313 43.7655 31.626 43.4938C31.5856 41.3806 31.6813 39.8797 33.2022 38.2881Z" fill="#53C8E6"/>
<path d="M17.9016 38.2881C18.2551 38.2881 18.6085 38.2881 18.9726 38.2881C18.9726 41.0678 18.9726 43.8476 18.9726 46.7116C18.6192 46.7116 18.2658 46.7116 17.9016 46.7116C17.9016 43.9318 17.9016 41.1521 17.9016 38.2881Z" fill="#4BC6E2"/>
<path d="M36.1093 39.6669C36.4822 39.9923 36.4822 39.9923 36.7213 40.4326C36.6989 41.0035 36.669 41.2508 36.2623 41.6579C36.2248 42.0413 36.2052 42.4092 36.1989 42.7934C36.196 42.9051 36.193 43.0169 36.19 43.132C36.1808 43.4893 36.1737 43.8467 36.1667 44.2041C36.1608 44.4462 36.1549 44.6883 36.1487 44.9303C36.134 45.5242 36.1212 46.118 36.1093 46.712C35.7558 46.712 35.4024 46.712 35.0383 46.712C35.0352 46.5605 35.0322 46.409 35.0291 46.2529C35.0174 45.6917 35.0039 45.1306 34.9897 44.5694C34.9838 44.3264 34.9785 44.0834 34.9737 43.8403C34.9667 43.4913 34.9579 43.1423 34.9486 42.7934C34.9468 42.6844 34.9451 42.5754 34.9432 42.4631C34.9412 41.8384 34.9412 41.8384 34.5792 41.3516C34.4749 40.2549 34.4749 40.2549 34.8279 39.82C35.304 39.6193 35.5976 39.5815 36.1093 39.6669Z" fill="#50C7E4"/>
<path d="M168 36.2978C168.303 36.2978 168.606 36.2978 168.918 36.2978C169.524 37.3591 170.13 38.4205 170.754 39.514C171.251 38.513 171.251 38.513 171.747 37.5117C171.84 37.3257 171.84 37.3257 171.935 37.1359C172.029 36.9446 172.029 36.9446 172.126 36.7495C172.284 36.4509 172.284 36.4509 172.437 36.2978C172.743 36.2915 173.049 36.2912 173.355 36.2978C173.142 36.9973 172.857 37.6328 172.517 38.278C172.467 38.3753 172.416 38.4726 172.364 38.5728C172.204 38.8805 172.043 39.1877 171.883 39.4949C171.773 39.7046 171.664 39.9144 171.555 40.1242C171.289 40.6359 171.022 41.1471 170.754 41.6582C170.401 41.6582 170.047 41.6582 169.683 41.6582C169.78 41.5233 169.878 41.3885 169.978 41.2495C170.176 40.7864 170.151 40.6118 169.979 40.1292C169.703 39.5911 169.408 39.0676 169.1 38.5472C168.894 38.1879 168.689 37.8276 168.485 37.4674C168.392 37.309 168.299 37.1506 168.204 36.9874C168 36.6041 168 36.6041 168 36.2978Z" fill="#DCDDDE"/>
<path d="M24.7869 8.57617C25.1403 8.57617 25.4938 8.57617 25.8579 8.57617C25.8579 11.3559 25.8579 14.1357 25.8579 16.9997C25.5045 16.9997 25.151 16.9997 24.7869 16.9997C24.7869 14.2199 24.7869 11.4402 24.7869 8.57617Z" fill="#3FC3DE"/>
<path d="M147.803 36.2979C148.106 36.2979 148.409 36.2979 148.721 36.2979C149.277 37.3592 149.832 38.4206 150.404 39.5141C150.654 39.0403 150.903 38.5664 151.16 38.0783C151.238 37.9291 151.317 37.78 151.398 37.6264C151.459 37.509 151.521 37.3916 151.585 37.2706C151.68 37.0902 151.68 37.0902 151.777 36.9061C151.882 36.7043 151.986 36.5015 152.087 36.2979C152.39 36.2979 152.693 36.2979 153.005 36.2979C152.911 36.9689 152.653 37.5123 152.341 38.1046C152.29 38.2017 152.24 38.2989 152.188 38.3989C152.082 38.6031 151.976 38.8069 151.869 39.0106C151.705 39.3233 151.542 39.6367 151.379 39.9502C151.276 40.1487 151.172 40.3471 151.069 40.5455C151.02 40.6394 150.971 40.7334 150.921 40.8302C150.575 41.4871 150.575 41.4871 150.404 41.6582C150.098 41.6645 149.792 41.6648 149.486 41.6582C149.54 41.5477 149.594 41.4371 149.649 41.3232C149.854 40.707 149.73 40.3166 149.453 39.7378C149.377 39.6035 149.301 39.4693 149.223 39.331C149.099 39.1098 149.099 39.1098 148.973 38.8841C148.887 38.7319 148.801 38.5797 148.712 38.4229C148.54 38.1198 148.369 37.8164 148.199 37.5123C148.124 37.3784 148.048 37.2446 147.969 37.1066C147.803 36.7573 147.803 36.7573 147.803 36.2979Z" fill="#DCDDDE"/>
<path d="M47.9385 36.2878C48.0518 36.2885 48.1651 36.2892 48.2819 36.2899C48.5595 36.2917 48.8371 36.2945 49.1147 36.2974C49.1147 36.5501 49.1147 36.8028 49.1147 37.0632C48.9451 37.0707 48.7755 37.0782 48.6007 37.0859C48.3768 37.0974 48.1529 37.109 47.9289 37.1206C47.8173 37.1254 47.7057 37.1301 47.5906 37.135C46.7758 37.1773 46.7758 37.1773 46.0546 37.5226C45.5575 38.3187 45.6516 39.3961 45.8538 40.2794C46.1273 40.6967 46.3445 40.7425 46.8196 40.892C47.2217 40.9362 47.6121 40.9692 48.015 40.9878C48.174 40.9966 48.174 40.9966 48.3362 41.0057C48.5957 41.02 48.8552 41.0328 49.1147 41.0452C49.1147 41.2474 49.1147 41.4495 49.1147 41.6578C48.6207 41.6712 48.1267 41.6793 47.6325 41.6865C47.4929 41.6904 47.3534 41.6942 47.2096 41.6982C46.4454 41.7065 45.9038 41.7105 45.2896 41.1983C44.6743 40.3626 44.5776 39.4605 44.6776 38.4416C44.8252 37.7339 44.9978 37.2094 45.5 36.6803C46.2741 36.2375 47.0667 36.2777 47.9385 36.2878Z" fill="#DCDDDE"/>
<path d="M22.4918 40.1262C22.7882 40.2889 22.7882 40.2889 22.9508 40.5857C23.0105 41.2545 23.0217 41.5513 22.6448 42.1172C22.5882 42.6073 22.5882 42.6073 22.5814 43.1671C22.5785 43.2685 22.5755 43.3698 22.5724 43.4742C22.5633 43.7972 22.5562 44.1202 22.5492 44.4432C22.5433 44.6625 22.5373 44.8818 22.5312 45.101C22.5165 45.6379 22.5037 46.1749 22.4918 46.7118C22.1383 46.7118 21.7849 46.7118 21.4207 46.7118C21.4185 46.5759 21.4163 46.4399 21.414 46.2998C21.4046 45.7939 21.3933 45.2882 21.3806 44.7824C21.3755 44.5638 21.3712 44.3451 21.3677 44.1265C21.3626 43.8116 21.3546 43.4969 21.346 43.1821C21.342 42.9928 21.338 42.8035 21.3339 42.6085C21.2629 42.081 21.1355 41.906 20.8087 41.5046C20.8278 40.9494 20.8278 40.9494 20.9617 40.4325C21.5271 40.0553 21.8236 40.0665 22.4918 40.1262Z" fill="#4FC7E4"/>
<path d="M21.4208 8.57617C21.7742 8.57617 22.1277 8.57617 22.4918 8.57617C22.4948 8.71295 22.4979 8.84973 22.501 8.99065C22.513 9.49847 22.5262 10.0062 22.5404 10.514C22.5462 10.7337 22.5516 10.9534 22.5564 11.1731C22.5634 11.4891 22.5722 11.8049 22.5815 12.1209C22.5863 12.3109 22.5911 12.501 22.596 12.6969C22.6102 13.1963 22.6102 13.1963 22.9508 13.6303C23.0214 14.184 23.0203 14.4475 22.7022 14.9129C22.2299 15.2364 21.9826 15.2555 21.4208 15.1618C21.0574 14.9129 21.0574 14.9129 20.8087 14.5492C20.7418 14.0802 20.7418 14.0802 20.8087 13.6303C20.8843 13.5668 20.9598 13.5034 21.0375 13.438C21.392 13.0266 21.3348 12.6553 21.3461 12.1209C21.3502 11.9689 21.3502 11.9689 21.3544 11.8138C21.3627 11.4908 21.3678 11.1678 21.373 10.8448C21.378 10.6255 21.3833 10.4062 21.3888 10.187C21.4018 9.65008 21.412 9.11316 21.4208 8.57617Z" fill="#43C4E0"/>
<path d="M5.35518 40.8925C5.65163 41.0456 5.65163 41.0456 5.8142 41.352C5.86856 41.7811 5.84895 42.1388 5.8142 42.5772C5.71321 42.6783 5.61223 42.7794 5.50818 42.8835C5.45131 43.2845 5.45131 43.2845 5.44483 43.751C5.43596 44.0086 5.43596 44.0086 5.4269 44.2715C5.4198 44.5415 5.4198 44.5415 5.41256 44.8171C5.40368 45.0889 5.40368 45.0889 5.39463 45.3663C5.38017 45.8149 5.36708 46.2636 5.35518 46.7124C5.00174 46.7124 4.64829 46.7124 4.28414 46.7124C4.28079 46.5432 4.28079 46.5432 4.27738 46.3706C4.26598 45.8591 4.25119 45.3477 4.23633 44.8362C4.23288 44.6587 4.22942 44.4812 4.22587 44.2984C4.22044 44.1276 4.21502 43.9568 4.20943 43.7809C4.20542 43.6237 4.20142 43.4665 4.19729 43.3045C4.1228 42.8305 3.96629 42.6389 3.67212 42.2709C3.69154 41.7945 3.75175 41.4744 3.99726 41.0648C4.45619 40.7892 4.83402 40.8366 5.35518 40.8925Z" fill="#38C2DC"/>
<path d="M15.6065 40.8923C15.903 41.0455 15.903 41.0455 16.0655 41.3518C16.1199 41.781 16.1003 42.1387 16.0655 42.577C15.9646 42.6781 15.8636 42.7792 15.7595 42.8834C15.7027 43.2844 15.7027 43.2844 15.6962 43.7508C15.6873 44.0085 15.6873 44.0085 15.6782 44.2713C15.6711 44.5414 15.6711 44.5414 15.6639 44.8169C15.655 45.0888 15.655 45.0888 15.646 45.3661C15.6315 45.8148 15.6184 46.2635 15.6065 46.7122C15.2531 46.7122 14.8996 46.7122 14.5355 46.7122C14.5333 46.6002 14.531 46.4883 14.5287 46.3729C14.5173 45.8637 14.5025 45.3547 14.4877 44.8456C14.4842 44.6694 14.4808 44.4932 14.4772 44.3117C14.4718 44.1414 14.4664 43.9711 14.4608 43.7957C14.4568 43.6393 14.4528 43.4829 14.4486 43.3218C14.3737 42.8253 14.1904 42.537 13.9235 42.1176C13.944 41.6863 14.0223 41.4392 14.2486 41.0742C14.7053 40.7847 15.081 40.836 15.6065 40.8923Z" fill="#46C5E1"/>
<path d="M22.4918 26.9551C22.8074 27.1944 22.8074 27.1944 22.9508 27.5677C22.9008 28.5368 22.9008 28.5368 22.4918 28.9461C22.4353 29.2721 22.4353 29.2721 22.4285 29.6461C22.4196 29.8519 22.4196 29.8519 22.4105 30.0619C22.4034 30.2772 22.4034 30.2772 22.3962 30.4968C22.3873 30.7139 22.3873 30.7139 22.3783 30.9353C22.3638 31.2933 22.3507 31.6512 22.3388 32.0092C21.9854 32.0092 21.6319 32.0092 21.2678 32.0092C21.2678 30.9478 21.2678 29.8865 21.2678 28.793C21.1668 28.793 21.0658 28.793 20.9618 28.793C20.7285 28.3259 20.7727 27.9288 20.8088 27.4146C21.1377 26.7767 21.86 26.8394 22.4918 26.9551Z" fill="#52C7E5"/>
<path d="M4.28419 8.57617C4.63763 8.57617 4.99107 8.57617 5.35523 8.57617C5.36272 8.76985 5.37022 8.96352 5.37794 9.16306C5.38942 9.41733 5.40098 9.67159 5.4126 9.92584C5.41734 10.0535 5.42207 10.1811 5.42695 10.3126C5.43286 10.4355 5.43878 10.5584 5.44488 10.685C5.44969 10.7981 5.45449 10.9112 5.45945 11.0277C5.49421 11.381 5.49421 11.381 5.81424 11.7924C5.89648 12.7144 5.89648 12.7144 5.65167 13.1612C5.189 13.4152 4.80075 13.3701 4.28419 13.324C3.82517 13.0176 3.82517 13.0176 3.69129 12.5007C3.67217 11.9456 3.67217 11.9456 3.8939 11.6931C4.26062 11.1365 4.21853 10.5697 4.23637 9.91627C4.2416 9.78755 4.24683 9.65883 4.25221 9.52621C4.26479 9.2096 4.27475 8.89289 4.28419 8.57617Z" fill="#53C7E5"/>
<path d="M31.6722 31.0898C32.0256 31.0898 32.3791 31.0898 32.7432 31.0898C32.7567 31.6003 32.7648 32.1108 32.7719 32.6214C32.7758 32.7645 32.7796 32.9077 32.7836 33.0551C32.7939 34.0437 32.7389 34.9746 32.0849 35.7754C31.905 35.9583 31.7131 36.1292 31.5192 36.2971C31.2667 35.9938 31.0143 35.6906 30.7542 35.3782C30.9009 35.1697 30.9009 35.1697 31.0506 34.957C31.4368 34.3478 31.5321 33.8939 31.5676 33.1837C31.574 33.0613 31.5804 32.9389 31.587 32.8128C31.593 32.6865 31.599 32.5601 31.6052 32.4299C31.6152 32.2369 31.6152 32.2369 31.6253 32.0399C31.6414 31.7232 31.6569 31.4065 31.6722 31.0898Z" fill="#49C5E2"/>
<path d="M19.1257 28.6403C19.4222 28.8892 19.4222 28.8892 19.5848 29.2529C19.5347 30.222 19.5347 30.222 19.1257 30.6313C19.0553 30.9686 19.0553 30.9686 19.0301 31.3397C19.0187 31.4648 19.0072 31.59 18.9954 31.719C18.988 31.8149 18.9805 31.9109 18.9727 32.0097C18.6193 32.0097 18.2659 32.0097 17.9017 32.0097C17.8905 31.8492 17.8905 31.8492 17.879 31.6855C17.8675 31.5461 17.8561 31.4067 17.8443 31.2631C17.8337 31.1245 17.823 30.9859 17.812 30.8431C17.78 30.4507 17.78 30.4507 17.4427 30.1719C17.3561 29.218 17.3561 29.218 17.6531 28.8126C18.1928 28.4386 18.4906 28.4717 19.1257 28.6403Z" fill="#57C9E9"/>
<path d="M17.9016 23.2793C18.2551 23.2793 18.6085 23.2793 18.9727 23.2793C19.0168 23.4214 19.061 23.5636 19.1065 23.71C19.2615 24.2132 19.2615 24.2132 19.5847 24.6577C19.5643 25.2274 19.5465 25.5935 19.1735 26.0361C18.6863 26.247 18.4051 26.1862 17.9016 26.0361C17.6147 25.8638 17.6147 25.8638 17.4426 25.5766C17.3948 25.031 17.3948 25.031 17.4426 24.5045C17.5436 24.4034 17.6446 24.3024 17.7486 24.1982C17.8095 23.8937 17.8615 23.5872 17.9016 23.2793Z" fill="#53C8E5"/>
</svg>
