<svg width="21" height="21" viewBox="0 0 21 21" fill="none" xmlns="http://www.w3.org/2000/svg">
<path d="M10.6667 13.5716C10.2084 13.5716 9.81619 13.4086 9.49008 13.0824C9.16397 12.7563 9.00064 12.3638 9.00008 11.9049C8.99953 11.4461 9.16286 11.0538 9.49008 10.7283C9.8173 10.4027 10.2095 10.2394 10.6667 10.2383C11.124 10.2372 11.5165 10.4005 11.8442 10.7283C12.172 11.0561 12.3351 11.4483 12.3334 11.9049C12.3317 12.3616 12.1687 12.7541 11.8442 13.0824C11.5198 13.4108 11.1273 13.5738 10.6667 13.5716ZM6.81258 6.07161H14.5209L15.5834 3.94661C15.7223 3.66884 15.7117 3.398 15.5517 3.13411C15.3917 2.87023 15.1523 2.73828 14.8334 2.73828H6.50008C6.18064 2.73828 5.94119 2.87023 5.78175 3.13411C5.6223 3.398 5.61175 3.66884 5.75008 3.94661L6.81258 6.07161ZM7.66675 17.7383H13.6667C14.9167 17.7383 15.9792 17.3044 16.8542 16.4366C17.7292 15.5688 18.1667 14.5027 18.1667 13.2383C18.1667 12.7105 18.0765 12.1966 17.8959 11.6966C17.7154 11.1966 17.4584 10.7452 17.1251 10.3424L14.9584 7.73828H6.37508L4.20841 10.3424C3.87508 10.7452 3.61814 11.1966 3.43758 11.6966C3.25703 12.1966 3.16675 12.7105 3.16675 13.2383C3.16675 14.5022 3.60091 15.5683 4.46925 16.4366C5.33758 17.3049 6.40341 17.7388 7.66675 17.7383Z" fill="#DCDDDE"/>
</svg>
